<svg width="44" height="49" viewBox="0 0 44 49" fill="none" xmlns="http://www.w3.org/2000/svg">
<mask id="path-1-inside-1_15_58" fill="white">
<path d="M38.1421 5.85786C36.285 4.00069 34.0802 2.5275 31.6537 1.52241C29.2272 0.517314 26.6264 -4.38323e-07 24 0C21.3736 4.38324e-07 18.7728 0.517316 16.3463 1.52241C13.9198 2.52751 11.715 4.00069 9.85786 5.85787C8.00069 7.71504 6.5275 9.91982 5.52241 12.3463C4.51731 14.7728 4 17.3736 4 20C4 22.6264 4.51732 25.2272 5.52241 27.6537C6.52751 30.0802 8.0007 32.285 9.85787 34.1421L24 20L38.1421 5.85786Z"/>
</mask>
<path d="M38.1421 5.85786C36.285 4.00069 34.0802 2.5275 31.6537 1.52241C29.2272 0.517314 26.6264 -4.38323e-07 24 0C21.3736 4.38324e-07 18.7728 0.517316 16.3463 1.52241C13.9198 2.52751 11.715 4.00069 9.85786 5.85787C8.00069 7.71504 6.5275 9.91982 5.52241 12.3463C4.51731 14.7728 4 17.3736 4 20C4 22.6264 4.51732 25.2272 5.52241 27.6537C6.52751 30.0802 8.0007 32.285 9.85787 34.1421L24 20L38.1421 5.85786Z" stroke="white" stroke-width="6" mask="url(#path-1-inside-1_15_58)"/>
<mask id="path-2-inside-2_15_58" fill="white">
<path d="M5.85786 43.1421C7.71504 44.9993 9.91982 46.4725 12.3463 47.4776C14.7728 48.4827 17.3736 49 20 49C22.6264 49 25.2272 48.4827 27.6537 47.4776C30.0802 46.4725 32.285 44.9993 34.1421 43.1421C35.9993 41.285 37.4725 39.0802 38.4776 36.6537C39.4827 34.2272 40 31.6264 40 29C40 26.3736 39.4827 23.7728 38.4776 21.3463C37.4725 18.9198 35.9993 16.715 34.1421 14.8579L20 29L5.85786 43.1421Z"/>
</mask>
<path d="M5.85786 43.1421C7.71504 44.9993 9.91982 46.4725 12.3463 47.4776C14.7728 48.4827 17.3736 49 20 49C22.6264 49 25.2272 48.4827 27.6537 47.4776C30.0802 46.4725 32.285 44.9993 34.1421 43.1421C35.9993 41.285 37.4725 39.0802 38.4776 36.6537C39.4827 34.2272 40 31.6264 40 29C40 26.3736 39.4827 23.7728 38.4776 21.3463C37.4725 18.9198 35.9993 16.715 34.1421 14.8579L20 29L5.85786 43.1421Z" stroke="white" stroke-width="6" mask="url(#path-2-inside-2_15_58)"/>
</svg>
