<svg width="32" height="19" viewBox="0 0 32 19" fill="none" xmlns="http://www.w3.org/2000/svg">
<path d="M8.76743 6.75675C8.76743 7.1396 8.80882 7.45001 8.88125 7.67765C8.96403 7.90529 9.0675 8.15363 9.21236 8.42265C9.2641 8.50543 9.28479 8.58821 9.28479 8.66064C9.28479 8.76411 9.22271 8.86758 9.08819 8.97106L8.43632 9.40564C8.34319 9.46772 8.25007 9.49877 8.16729 9.49877C8.06382 9.49877 7.96034 9.44703 7.85687 9.3539C7.71201 9.1987 7.58784 9.03314 7.48437 8.86758C7.3809 8.69168 7.27743 8.49508 7.16361 8.2571C6.35652 9.20904 5.34249 9.68502 4.12152 9.68502C3.25235 9.68502 2.55909 9.43668 2.05207 8.94002C1.54506 8.44335 1.28638 7.78112 1.28638 6.95335C1.28638 6.07383 1.59679 5.35987 2.22798 4.82181C2.85916 4.28376 3.69728 4.01473 4.76305 4.01473C5.11485 4.01473 5.47701 4.04577 5.85986 4.09751C6.2427 4.14924 6.6359 4.23202 7.04979 4.32515V3.5698C7.04979 2.78341 6.88423 2.235 6.56347 1.91424C6.23236 1.59347 5.6736 1.43827 4.87687 1.43827C4.51471 1.43827 4.14221 1.47966 3.75937 1.57278C3.37652 1.66591 3.00402 1.77973 2.64186 1.92459C2.47631 1.99702 2.35214 2.03841 2.27971 2.0591C2.20728 2.0798 2.15554 2.09014 2.11416 2.09014C1.96929 2.09014 1.89686 1.98667 1.89686 1.76938V1.26236C1.89686 1.09681 1.91756 0.972641 1.96929 0.90021C2.02103 0.827779 2.11416 0.755348 2.25902 0.682918C2.62117 0.496667 3.05575 0.341459 3.56277 0.217292C4.06978 0.0827779 4.60784 0.0206945 5.17694 0.0206945C6.40826 0.0206945 7.30847 0.30007 7.88791 0.858821C8.45701 1.41757 8.74673 2.26605 8.74673 3.40424V6.75675H8.76743ZM4.56645 8.32953C4.90791 8.32953 5.25972 8.26744 5.63222 8.14328C6.00472 8.01911 6.33583 7.79147 6.6152 7.48105C6.78076 7.28446 6.90493 7.06716 6.96701 6.81883C7.02909 6.5705 7.07048 6.27043 7.07048 5.91862V5.48404C6.77041 5.41161 6.44965 5.34952 6.11854 5.30813C5.78742 5.26675 5.46666 5.24605 5.1459 5.24605C4.45263 5.24605 3.94562 5.38056 3.60416 5.65994C3.2627 5.93932 3.09714 6.33251 3.09714 6.84987C3.09714 7.33619 3.22131 7.69835 3.47999 7.94668C3.72832 8.20536 4.09048 8.32953 4.56645 8.32953V8.32953ZM12.8753 9.44703C12.689 9.44703 12.5649 9.41599 12.4821 9.34356C12.3993 9.28147 12.3269 9.13661 12.2648 8.94002L9.83319 0.941599C9.77111 0.734654 9.74007 0.60014 9.74007 0.527709C9.74007 0.362153 9.82285 0.269028 9.9884 0.269028H11.0024C11.199 0.269028 11.3335 0.30007 11.406 0.372501C11.4888 0.434584 11.5508 0.579445 11.6129 0.776043L13.3513 7.62592L14.9654 0.776043C15.0172 0.569098 15.0792 0.434584 15.162 0.372501C15.2448 0.310417 15.3897 0.269028 15.5759 0.269028H16.4037C16.6003 0.269028 16.7348 0.30007 16.8176 0.372501C16.9004 0.434584 16.9728 0.579445 17.0142 0.776043L18.649 7.70869L20.4391 0.776043C20.5012 0.569098 20.5736 0.434584 20.6461 0.372501C20.7288 0.310417 20.8633 0.269028 21.0496 0.269028H22.0119C22.1774 0.269028 22.2706 0.351806 22.2706 0.527709C22.2706 0.579445 22.2602 0.631182 22.2499 0.693265C22.2395 0.755349 22.2188 0.838126 22.1774 0.951946L19.6838 8.95036C19.6217 9.15731 19.5492 9.29182 19.4665 9.3539C19.3837 9.41599 19.2492 9.45738 19.0733 9.45738H18.1834C17.9868 9.45738 17.8523 9.42634 17.7695 9.3539C17.6867 9.28147 17.6143 9.14696 17.5729 8.94002L15.9691 2.26605L14.3756 8.92967C14.3239 9.13661 14.2618 9.27113 14.179 9.34356C14.0963 9.41599 13.9514 9.44703 13.7651 9.44703H12.8753ZM26.1715 9.72641C25.6334 9.72641 25.0954 9.66432 24.578 9.54016C24.0606 9.41599 23.6571 9.28147 23.3881 9.12627C23.2225 9.03314 23.1087 8.92967 23.0673 8.83654C23.0259 8.74342 23.0052 8.63994 23.0052 8.54682V8.01911C23.0052 7.80182 23.088 7.69835 23.2432 7.69835C23.3053 7.69835 23.3674 7.70869 23.4295 7.72939C23.4915 7.75008 23.5847 7.79147 23.6881 7.83286C24.04 7.98807 24.4228 8.11224 24.8263 8.19501C25.2402 8.27779 25.6438 8.31918 26.0577 8.31918C26.7095 8.31918 27.2166 8.20536 27.5684 7.97772C27.9202 7.75008 28.1064 7.41897 28.1064 6.99473C28.1064 6.70501 28.0133 6.46703 27.827 6.27043C27.6408 6.07383 27.289 5.89793 26.782 5.73237L25.2816 5.26675C24.5263 5.02876 23.9675 4.67695 23.6261 4.21133C23.2846 3.75605 23.1087 3.24903 23.1087 2.71098C23.1087 2.27639 23.2018 1.89354 23.3881 1.56243C23.5743 1.23132 23.8227 0.941599 24.1331 0.71396C24.4435 0.475973 24.7953 0.30007 25.2092 0.175903C25.6231 0.0517362 26.0577 0 26.5129 0C26.7406 0 26.9786 0.0103472 27.2062 0.041389C27.4442 0.0724307 27.6615 0.11382 27.8788 0.155209C28.0857 0.206945 28.2823 0.258681 28.4686 0.320764C28.6548 0.382848 28.7997 0.444931 28.9032 0.507015C29.048 0.589793 29.1515 0.672571 29.2136 0.765696C29.2757 0.848474 29.3067 0.962293 29.3067 1.10715V1.59347C29.3067 1.81077 29.2239 1.92459 29.0687 1.92459C28.9859 1.92459 28.8514 1.8832 28.6755 1.80042C28.0857 1.53139 27.4235 1.39688 26.6888 1.39688C26.0991 1.39688 25.6334 1.49 25.3127 1.6866C24.9919 1.8832 24.8263 2.18327 24.8263 2.6075C24.8263 2.89723 24.9298 3.14556 25.1368 3.34216C25.3437 3.53876 25.7266 3.73535 26.275 3.91126L27.7443 4.37688C28.4893 4.61487 29.0273 4.94598 29.3481 5.37022C29.6688 5.79445 29.8241 6.28077 29.8241 6.81883C29.8241 7.26376 29.7309 7.6673 29.555 8.01911C29.3688 8.37092 29.1204 8.68133 28.7997 8.92967C28.4789 9.18835 28.0961 9.3746 27.6511 9.50911C27.1855 9.65397 26.6992 9.72641 26.1715 9.72641V9.72641Z" fill="white"/>
<path fill-rule="evenodd" clip-rule="evenodd" d="M28.1271 14.7551C24.7228 17.2695 19.7769 18.6043 15.5242 18.6043C9.56415 18.6043 4.19394 16.4003 0.137827 12.7374C-0.182937 12.4477 0.106785 12.0545 0.489633 12.2821C4.87686 14.8275 10.2885 16.3693 15.8863 16.3693C19.663 16.3693 23.8123 15.5829 27.6304 13.9687C28.1995 13.71 28.6858 14.3412 28.1271 14.7551V14.7551Z" fill="#FF9900"/>
<path fill-rule="evenodd" clip-rule="evenodd" d="M29.5447 13.1409C29.1101 12.5822 26.6681 12.8719 25.561 13.0064C25.2299 13.0478 25.1782 12.7581 25.4782 12.5408C27.4235 11.175 30.6208 11.5681 30.9933 12.0234C31.3658 12.4891 30.8898 15.6863 29.0687 17.2177C28.7893 17.4557 28.5203 17.3316 28.6445 17.0211C29.0583 15.9968 29.9792 13.6893 29.5447 13.1409V13.1409Z" fill="#FF9900"/>
</svg>
