<svg width="32" height="30" viewBox="0 0 32 30" fill="none" xmlns="http://www.w3.org/2000/svg">
<path d="M10.3719 0.000777828H19.5779L10.0211 28.3332C9.97219 28.4779 9.90107 28.6141 9.81026 28.7368C9.71965 28.8597 9.61036 28.9675 9.4863 29.0565C9.36224 29.1456 9.22534 29.2148 9.07988 29.2615C8.93443 29.3082 8.78275 29.3323 8.6303 29.3323H1.46571C1.23314 29.3323 1.00368 29.277 0.79678 29.1705C0.589657 29.0642 0.410866 28.9101 0.275245 28.7209C0.139536 28.5317 0.0507554 28.313 0.016228 28.0827C-0.0183854 27.8525 0.00261596 27.6172 0.0768986 27.3967L8.98071 0.99912C9.02932 0.854444 9.1005 0.718324 9.1915 0.595427C9.28212 0.47253 9.39179 0.364801 9.51547 0.27574C9.63953 0.186679 9.77643 0.117452 9.92188 0.0707823C10.0673 0.0241127 10.219 0 10.3715 0V0.000388914L10.3719 0.000777828Z" fill="url(#paint0_linear_106_123)"/>
<path d="M27.3425 29.3323H19.0761C18.984 29.3323 18.8918 29.3237 18.8008 29.3062C18.7102 29.2891 18.6211 29.2634 18.5352 29.2296C18.4492 29.1957 18.3668 29.1537 18.2886 29.1047C18.2105 29.0554 18.1372 28.9989 18.0696 28.936L8.68901 20.1753C8.5898 20.0826 8.5207 19.9623 8.49067 19.8299C8.46067 19.6975 8.47122 19.5592 8.52096 19.4328C8.57069 19.3065 8.65731 19.1981 8.76952 19.1217C8.88191 19.0455 9.01454 19.0046 9.15027 19.0046H23.7485L27.3417 29.3326L27.3425 29.3323Z" fill="#0078D4"/>
<path d="M19.6109 0.000750658L13.1666 19.0066L23.696 19.0043L27.3079 29.3323H19.0726C18.9875 29.3315 18.9023 29.3237 18.8183 29.3086C18.7343 29.2934 18.6518 29.2712 18.5717 29.2417C18.4111 29.1831 18.2616 29.0975 18.1299 28.9885L11.7976 23.0786L10.0249 28.3063C9.97904 28.437 9.91603 28.5611 9.83747 28.675C9.68002 28.9043 9.46464 29.0877 9.21327 29.2067C9.08811 29.2659 8.95562 29.3081 8.8193 29.3323H1.46998C1.23508 29.3331 1.00328 29.2771 0.794436 29.169C0.585558 29.0609 0.405757 28.9042 0.270235 28.712C0.134713 28.5198 0.0474522 28.2979 0.0158298 28.0648C-0.0156781 27.8317 0.00926362 27.5944 0.0885568 27.373L8.97797 1.01893C9.02425 0.871531 9.09387 0.732688 9.1841 0.607457C9.27394 0.482227 9.38361 0.371775 9.50806 0.280769C9.63252 0.189763 9.77097 0.118981 9.91759 0.0715331C10.0642 0.0240855 10.2178 -2.71711e-05 10.3722 0.000750658H19.6113H19.6109Z" fill="url(#paint1_linear_106_123)"/>
<path d="M31.0341 27.3967C31.1084 27.6173 31.1293 27.8524 31.0951 28.0827C31.0606 28.3129 30.9719 28.5316 30.8365 28.7209C30.7009 28.91 30.5221 29.0641 30.3151 29.1704C30.1081 29.2767 29.8788 29.3322 29.646 29.3323H19.3857C19.6183 29.3323 19.8477 29.2767 20.055 29.1705C20.2619 29.0643 20.4408 28.9099 20.5766 28.7209C20.7123 28.5319 20.801 28.3129 20.8356 28.0827C20.8702 27.8525 20.8492 27.6172 20.7749 27.3967L11.8707 0.998298C11.7727 0.707501 11.5859 0.454771 11.3367 0.275695C11.213 0.186634 11.0761 0.117796 10.9311 0.071126C10.786 0.0244562 10.6343 0.000732422 10.4823 0.000732422H20.7422C20.8947 0.000732422 21.046 0.0244562 21.1914 0.071126C21.3365 0.117796 21.4734 0.187023 21.5975 0.275695C21.7211 0.364757 21.8304 0.472486 21.921 0.594994C22.0116 0.717502 22.0824 0.853622 22.1314 0.998298L31.0356 27.3967H31.0341Z" fill="url(#paint2_linear_106_123)"/>
<defs>
<linearGradient id="paint0_linear_106_123" x1="13.7317" y1="2.17481" x2="4.16442" y2="30.4372" gradientUnits="userSpaceOnUse">
<stop stop-color="#114A8B"/>
<stop offset="1" stop-color="#0669BC"/>
</linearGradient>
<linearGradient id="paint1_linear_106_123" x1="16.7146" y1="15.3434" x2="14.5017" y2="16.094" gradientUnits="userSpaceOnUse">
<stop stop-opacity="0.3"/>
<stop offset="0.1" stop-opacity="0.2"/>
<stop offset="0.3" stop-opacity="0.1"/>
<stop offset="0.6" stop-opacity="0.1"/>
<stop offset="1" stop-opacity="0"/>
</linearGradient>
<linearGradient id="paint2_linear_106_123" x1="15.4934" y1="1.35027" x2="25.9941" y2="29.3249" gradientUnits="userSpaceOnUse">
<stop stop-color="#3CCBF4"/>
<stop offset="1" stop-color="#2892DF"/>
</linearGradient>
</defs>
</svg>
