<svg width="28" height="31" viewBox="0 0 28 31" fill="none" xmlns="http://www.w3.org/2000/svg">
<path d="M27.4071 9.05661C27.4069 8.53864 27.2961 8.08094 27.0721 7.68823C26.8521 7.30184 26.5225 6.97808 26.0805 6.7221C22.4316 4.61816 18.7793 2.52066 15.1316 0.414578C14.1482 -0.15315 13.1948 -0.132345 12.2187 0.443532C10.7663 1.29995 3.49494 5.4659 1.32816 6.72092C0.435822 7.2376 0.00160859 8.02818 0.00139412 9.05564C0 13.2868 0.00139412 17.5179 0 21.7491C0 22.2557 0.106274 22.7046 0.320432 23.0914C0.540595 23.4894 0.874754 23.822 1.32698 24.0838C3.49387 25.3388 10.7662 29.5044 12.2182 30.3612C13.1948 30.9374 14.1482 30.958 15.1319 30.3901C18.7797 28.284 22.4323 26.1865 26.0816 24.0825C26.5339 23.8208 26.868 23.488 27.0882 23.0903C27.302 22.7034 27.4085 22.2546 27.4085 21.7479C27.4085 21.7479 27.4085 13.2879 27.4071 9.05661Z" fill="#A179DC"/>
<path d="M13.7462 15.3611L0.320435 23.0914C0.540598 23.4893 0.874756 23.822 1.32699 24.0837C3.49387 25.3388 10.7662 29.5044 12.2182 30.3611C13.1948 30.9373 14.1482 30.9579 15.1319 30.3901C18.7797 28.2839 22.4323 26.1864 26.0816 24.0825C26.5339 23.8208 26.868 23.4879 27.0882 23.0903L13.7462 15.3611Z" fill="#280068"/>
<path d="M27.4072 9.05662C27.407 8.53865 27.2962 8.08095 27.0722 7.68823L13.7462 15.3613L27.0883 23.0904C27.3021 22.7034 27.4084 22.2546 27.4086 21.7479C27.4086 21.7479 27.4086 13.2879 27.4072 9.05662Z" fill="#390091"/>
<path d="M21.6508 12.4713V13.9163H23.0958V12.4713H23.8183V13.9163H25.2632V14.6387H23.8183V16.0836H25.2632V16.806H23.8183V18.251H23.0958V16.806H21.6508V18.251H20.9283V16.806H19.4835V16.0836H20.9283V14.6387H19.4835V13.9163H20.9283V12.4713H21.6508ZM23.0958 14.6386H21.6508V16.0836H23.0958V14.6386Z" fill="#1E2235"/>
<path d="M13.7757 5.21458C17.5445 5.21458 20.8349 7.26136 22.5974 10.3038L22.5803 10.2745L18.1459 12.8276C17.2723 11.3485 15.6708 10.3502 13.8335 10.3296L13.7756 10.3293C10.9739 10.3293 8.70259 12.6006 8.70259 15.4023C8.70167 16.2853 8.93237 17.1532 9.37166 17.9192C10.2461 19.4457 11.89 20.4754 13.7757 20.4754C15.6731 20.4754 17.3263 19.4327 18.1962 17.8898L18.1751 17.9268L22.6027 20.4918C20.8595 23.5084 17.6141 25.5489 13.8891 25.5895L13.7757 25.5902C9.99494 25.5902 6.69517 23.5307 4.93709 20.4722C4.07885 18.9791 3.5878 17.2482 3.5878 15.4023C3.5878 9.77582 8.14892 5.21448 13.7756 5.21448L13.7757 5.21458Z" fill="#1E2235"/>
</svg>
