<svg width="23" height="32" viewBox="0 0 23 32" fill="none" xmlns="http://www.w3.org/2000/svg">
<path d="M14.7484 11.2366L11.637 14.1335L8.74887 8.30558L10.2409 4.95459C10.618 4.28616 11.2347 4.27733 11.6118 4.95459L14.7484 11.2366Z" fill="#FFA000"/>
<path d="M11.6383 14.1323L0 24.9571L8.75017 8.30554L11.6383 14.1323Z" fill="#F57F17"/>
<path d="M18.1599 6.80597C18.7174 6.27501 19.2912 6.4541 19.4362 7.20829L22.4618 24.8108L12.4265 30.8355C12.0747 31.0323 11.1414 31.1092 11.1414 31.1092C11.1414 31.1092 10.2926 31.0058 9.96721 30.8267L0 24.9571L18.1599 6.80597Z" fill="#FFCA28"/>
<path d="M8.75016 8.30558L0 24.9571L3.89961 0.61861C4.04591 -0.135583 4.47345 -0.212516 4.85938 0.455916L8.75016 8.30558Z" fill="#FFA000"/>
</svg>
