<svg width="32" height="30" viewBox="0 0 32 30" fill="none" xmlns="http://www.w3.org/2000/svg">
<path d="M1.82231 20.5413C1.85213 20.6087 1.88583 20.671 1.92213 20.7332C1.93898 20.7695 1.96231 20.8071 1.98305 20.8408C2.01676 20.9082 2.05305 20.973 2.08805 21.0378L2.29157 21.3801C2.32917 21.4436 2.36546 21.5058 2.40824 21.568C2.47954 21.6899 2.5638 21.8091 2.63769 21.931C2.67139 21.9815 2.7025 22.0321 2.7401 22.0826C2.88269 22.3043 3.01232 22.4884 3.15103 22.6673C3.24955 22.8008 3.34807 22.9317 3.45436 23.0627C3.48936 23.1119 3.52825 23.1612 3.56455 23.2104L3.85104 23.5578C3.88604 23.598 3.92104 23.6447 3.95863 23.6862C4.08567 23.8391 4.22048 23.9869 4.3553 24.1373C4.3553 24.1399 4.35919 24.1425 4.36178 24.1464C4.52901 24.3564 4.70919 24.543 4.90623 24.709L4.91142 24.7142C5.01512 24.8205 5.11883 24.9255 5.22901 25.0292L5.35994 25.1549C5.50383 25.2897 5.64772 25.4232 5.79939 25.5529C5.80198 25.5529 5.80328 25.5555 5.80587 25.5568L5.87976 25.6216C6.01198 25.7369 6.1455 25.851 6.28162 25.9573L6.44366 26.0934C6.55384 26.1816 6.66792 26.2645 6.7807 26.3514L6.95699 26.4862C7.07755 26.5769 7.20589 26.6651 7.32904 26.7532C7.37441 26.7857 7.41978 26.8181 7.46644 26.8479L7.50404 26.8777L7.8683 27.1162L8.02386 27.2199C8.21442 27.3418 8.40368 27.4558 8.59294 27.5699C8.64738 27.5971 8.70183 27.627 8.75238 27.6581C8.89239 27.7384 9.03757 27.8201 9.17887 27.894C9.25665 27.9381 9.33702 27.9757 9.41739 28.0159C9.51461 28.0703 9.61573 28.1234 9.71943 28.1779C9.74795 28.187 9.77128 28.196 9.79462 28.209L9.7998 28.2038C9.84258 28.2233 9.88277 28.244 9.92425 28.2647C10.0798 28.3425 10.2418 28.4164 10.4104 28.489C10.4415 28.502 10.4752 28.5149 10.5089 28.5331C10.6956 28.6147 10.8822 28.6925 11.0754 28.7677C11.1194 28.7807 11.1661 28.8027 11.2115 28.8196C11.3865 28.8857 11.5667 28.9531 11.7456 29.0166L11.8104 29.0399C12.0087 29.1073 12.2045 29.1722 12.4067 29.2331C12.4534 29.246 12.5013 29.2629 12.5506 29.2759C12.7567 29.3381 12.9563 29.412 13.165 29.4509C26.482 31.8659 30.3515 21.4838 30.3515 21.4838C27.1004 25.6968 21.3305 26.8077 15.8665 25.571C15.6643 25.5243 15.4621 25.4595 15.2573 25.3999C14.9682 25.3181 14.6816 25.2277 14.3978 25.129L14.521 25.1666L14.4406 25.1355C14.2643 25.0758 14.0945 25.0097 13.9221 24.9436C13.8799 24.9257 13.8371 24.9093 13.7937 24.8943L13.7795 24.8905C13.5889 24.814 13.4035 24.7362 13.2195 24.6545C13.1793 24.6416 13.1456 24.6234 13.1054 24.6079C12.8874 24.5128 12.6713 24.4134 12.4572 24.3097L12.6361 24.3888C12.5895 24.3681 12.5436 24.3457 12.4987 24.3214C12.3769 24.2643 12.255 24.1995 12.1358 24.1386C12.0449 24.0956 11.9554 24.0497 11.8674 24.0012L11.8933 24.0141C11.7469 23.9364 11.6004 23.8521 11.4526 23.773C11.4085 23.7419 11.358 23.716 11.3074 23.6875C11.0878 23.5598 10.8708 23.4276 10.6567 23.2908L10.7383 23.3401C10.6835 23.3062 10.6298 23.2703 10.5776 23.2325L10.5854 23.2377C10.446 23.1521 10.3094 23.0622 10.1757 22.968C10.1317 22.9395 10.0915 22.9084 10.0461 22.8773C9.90644 22.782 9.76899 22.6834 9.63387 22.5817L9.66499 22.6038C9.61054 22.5597 9.55221 22.5182 9.49387 22.4754C9.3798 22.386 9.26443 22.3004 9.15035 22.2071L8.99739 22.0852C8.83436 21.9555 8.67444 21.822 8.51775 21.6847L8.51646 21.6834L8.06664 21.275L7.93701 21.1532C7.83071 21.0456 7.72182 20.9432 7.61293 20.8369L7.48719 20.7073C7.35297 20.5744 7.22201 20.4382 7.0944 20.2989L7.08663 20.2899L7.06459 20.2717C6.92733 20.121 6.79207 19.9684 6.65884 19.8141C6.62384 19.7739 6.59144 19.7311 6.55514 19.6884L6.26088 19.3319C6.12823 19.1653 5.99858 18.9963 5.87198 18.825L5.82013 18.7524C2.78936 14.6354 1.69268 8.95364 4.11808 4.29211L1.97657 7.0001C-0.778088 10.9396 -0.437159 16.0626 1.66935 20.2458C1.71731 20.3482 1.77046 20.4441 1.82231 20.5413Z" fill="#1266A9"/>
<path d="M11.1 14.8661L11.0857 14.8454L11.074 14.8298L11.1 14.8661Z" fill="black"/>
<path d="M12.5493 16.5669L12.6659 16.6836C12.8137 16.8261 12.9654 16.9649 13.1196 17.1036L13.1391 17.1204C13.2946 17.2578 13.4696 17.4017 13.6498 17.5417L13.677 17.5624C13.7211 17.5923 13.7587 17.6273 13.8015 17.6571C13.983 17.7971 14.1658 17.9306 14.3563 18.0641L14.3758 18.0758C14.4561 18.1341 14.5417 18.1873 14.6324 18.2443C14.6687 18.2676 14.7102 18.2988 14.7491 18.3221C14.8865 18.4102 15.0213 18.4919 15.16 18.5762C15.1821 18.5852 15.2015 18.5969 15.2222 18.606C15.3389 18.6773 15.466 18.746 15.5878 18.8082C15.6306 18.8341 15.6721 18.8536 15.7161 18.8782C15.803 18.921 15.8885 18.9664 15.9715 19.0104L16.013 19.0286C16.188 19.1141 16.3669 19.1945 16.5419 19.2736C16.586 19.2904 16.6236 19.3047 16.6611 19.3228C16.805 19.3851 16.9515 19.4447 17.0954 19.4991C17.1602 19.5212 17.2212 19.5471 17.2821 19.5665C17.4143 19.6158 17.553 19.6612 17.6839 19.7065L17.8654 19.7649C18.0547 19.8232 18.2465 19.8997 18.4475 19.9308C28.7311 21.6238 31.1111 13.7461 31.1111 13.7461C28.9683 16.8145 24.8214 18.2767 20.4023 17.1347C20.1817 17.079 19.9629 17.0163 19.7464 16.9467L19.8203 16.9674C19.758 16.9506 19.7036 16.9311 19.644 16.913C19.5091 16.8663 19.3704 16.821 19.2395 16.773L19.0528 16.703C18.9077 16.6447 18.7599 16.5902 18.6186 16.528C18.5745 16.5085 18.5343 16.4956 18.5006 16.4761C18.3191 16.3945 18.1363 16.3141 17.9588 16.2285L17.6917 16.0898L17.5375 16.0121C17.4182 15.9498 17.308 15.885 17.1939 15.8189C17.1648 15.8052 17.1367 15.7897 17.1097 15.7722L17.1136 15.7735C16.9762 15.688 16.8336 15.605 16.7013 15.5182C16.6573 15.4935 16.6171 15.4637 16.5756 15.4378L16.306 15.2628C16.1193 15.1332 15.9365 14.9945 15.7511 14.8596C15.7097 14.8221 15.6695 14.7909 15.6293 14.7572C13.6861 13.2367 12.1539 11.1587 11.4267 8.80588C10.6605 6.35975 10.8291 3.61675 12.1526 1.39099L10.5257 3.68287C8.52811 6.53604 8.64089 10.3498 10.1965 13.3676C10.4803 13.925 10.7681 14.3956 11.0857 14.8441C11.3813 15.2667 11.708 15.7619 12.102 16.1015C12.242 16.261 12.3924 16.4126 12.5493 16.5669Z" fill="#1266A9"/>
<path d="M3.15751 22.675L3.15232 22.6672L3.14325 22.6556L3.15751 22.675ZM8.54755 21.7106L8.56052 21.7196L8.56311 21.7235L8.54755 21.7106Z" fill="black"/>
<path d="M17.7151 1.20168C16.5367 2.92188 16.4239 5.0582 17.2354 6.9547C18.0975 8.96916 19.8592 10.5507 21.9125 11.2999C21.9968 11.3323 22.0784 11.3596 22.1653 11.3907L22.2794 11.4257C22.3986 11.4633 22.5192 11.5073 22.6423 11.5346C28.3215 12.6248 29.8589 8.63342 30.2724 8.04619C28.9204 9.97769 26.6531 10.4418 23.8712 9.76898C23.6294 9.71 23.3913 9.63641 23.1583 9.54861L23.2011 9.56287C22.9111 9.46254 22.6272 9.34568 22.3507 9.21287L22.3999 9.23491C21.8684 8.97564 21.4121 8.69564 20.9882 8.37416C18.5019 6.49451 16.9645 2.9154 18.5875 0L17.7151 1.20168Z" fill="#1266A9"/>
</svg>
