<svg width="32" height="32" viewBox="0 0 32 32" fill="none" xmlns="http://www.w3.org/2000/svg">
<path d="M6.91225 0H24.1382C24.9764 0 25.7903 0.133681 26.5799 0.413194C27.7218 0.826389 28.7544 1.55556 29.5319 2.50347C30.3215 3.45139 30.8439 4.61806 31.0261 5.83333C31.099 6.28299 31.1111 6.73264 31.1111 7.18229V23.9896C31.1111 24.5243 31.0868 25.0712 30.9775 25.5938C30.7345 26.7969 30.1636 27.9271 29.3375 28.8385C28.5236 29.75 27.4546 30.4306 26.3005 30.7951C25.5959 31.0139 24.867 31.1111 24.126 31.1111C23.798 31.1111 6.86365 31.1111 6.60854 31.099C5.36945 31.0382 4.14249 30.6372 3.10991 29.9444C2.10162 29.2639 1.27556 28.316 0.741045 27.2222C0.27942 26.2865 0.0486072 25.2413 0.0486072 24.1962V6.91493C0.0243111 5.88194 0.242976 4.86111 0.692453 3.9375C1.21482 2.84375 2.02874 1.88368 3.03702 1.20312C4.06961 0.498264 5.28441 0.0850694 6.52351 0.0243056C6.64499 0 6.77862 0 6.91225 0Z" fill="url(#paint0_linear_102_2461)"/>
<path d="M26.2397 25.4479C26.1304 25.2778 26.0089 25.1076 25.8753 24.9497C25.5716 24.5851 25.2193 24.2691 24.8305 24.0017C24.3446 23.6736 23.7737 23.467 23.1906 23.4427C22.7775 23.4184 22.3645 23.4913 21.9758 23.6372C21.587 23.7708 21.2104 23.9653 20.846 24.1597C20.4208 24.3785 19.9956 24.5972 19.5462 24.7795C19.0116 24.9983 18.4528 25.1684 17.8819 25.2899C17.1651 25.4236 16.4363 25.4722 15.7195 25.4601C14.4197 25.4358 13.1199 25.2413 11.8808 24.8767C10.7874 24.5486 9.74271 24.099 8.75872 23.5278C7.89621 23.0295 7.09444 22.4583 6.34127 21.8142C5.72172 21.2795 5.15076 20.7083 4.61625 20.1007C4.25181 19.6753 3.89951 19.2257 3.57152 18.7639C3.43789 18.5816 3.31641 18.3872 3.20708 18.1927L0 14.7292V6.89062C0 3.08681 3.07345 0 6.87578 0H13.0105L17.5539 4.61806C27.8068 11.5938 24.4904 19.2865 24.4904 19.2865C24.4904 19.2865 27.4059 22.5677 26.2397 25.4479Z" fill="url(#paint1_linear_102_2461)"/>
<path d="M17.5782 4.61804C27.8311 11.5937 24.5147 19.2864 24.5147 19.2864C24.5147 19.2864 27.4302 22.5798 26.2518 25.4601C26.2518 25.4601 25.0492 23.4427 23.0326 23.4427C21.0889 23.4427 19.947 25.4601 16.0354 25.4601C7.32525 25.4601 3.20708 18.1805 3.20708 18.1805C11.0547 23.3455 16.412 19.6875 16.412 19.6875C12.8769 17.6337 5.35727 7.81422 5.35727 7.81422C11.905 13.3923 14.7355 14.8628 14.7355 14.8628C13.047 13.4653 8.30924 6.6354 8.30924 6.6354C12.0994 10.4757 19.6312 15.8351 19.6312 15.8351C21.7692 9.9045 17.5782 4.61804 17.5782 4.61804Z" fill="#1E2235"/>
<defs>
<linearGradient id="paint0_linear_102_2461" x1="18.5004" y1="-1.11016" x2="12.6203" y2="32.2242" gradientUnits="userSpaceOnUse">
<stop stop-color="#FAAE42"/>
<stop offset="1" stop-color="#EF3E31"/>
</linearGradient>
<linearGradient id="paint1_linear_102_2461" x1="15.8668" y1="0.502639" x2="11.5632" y2="24.8996" gradientUnits="userSpaceOnUse">
<stop stop-color="#E39F3A"/>
<stop offset="1" stop-color="#D33929"/>
</linearGradient>
</defs>
</svg>
