<svg width="32" height="18" viewBox="0 0 32 18" fill="none" xmlns="http://www.w3.org/2000/svg">
<path d="M22.715 13.0955C22.0007 13.0955 21.4197 12.514 21.4197 11.7996C21.4197 11.0853 22.0007 10.5043 22.715 10.5043C23.4295 10.5043 24.0105 11.0852 24.0105 11.7996C24.0105 12.5141 23.4295 13.0955 22.715 13.0955ZM8.39607 13.0955C7.68174 13.0955 7.10068 12.514 7.10068 11.7996C7.10068 11.0853 7.68163 10.5043 8.39607 10.5043C9.11039 10.5043 9.69146 11.0852 9.69146 11.7996C9.69146 12.5141 9.11051 13.0955 8.39607 13.0955ZM23.1797 5.29187L25.7688 0.807691C25.8401 0.683938 25.8593 0.536967 25.8224 0.399026C25.7854 0.261085 25.6952 0.14344 25.5716 0.0719062C25.4479 0.000668704 25.3009 -0.0185803 25.163 0.0183808C25.025 0.0553419 24.9074 0.145495 24.8358 0.269071L22.2144 4.80993C20.2095 3.89512 17.9581 3.38543 15.5556 3.38543C13.1531 3.38543 10.9016 3.89512 8.89687 4.80993L6.27527 0.269071C6.20371 0.145495 6.08607 0.0553419 5.94813 0.0183808C5.8102 -0.0185803 5.66324 0.000668704 5.53948 0.0719062C5.41581 0.143373 5.32557 0.261019 5.2886 0.398988C5.25163 0.536957 5.27095 0.68396 5.34232 0.807691L7.93143 5.29187C3.48555 7.70991 0.444837 12.2108 0 17.5284H31.1111C30.6659 12.2109 27.6252 7.70991 23.1797 5.29176" fill="#3DDB85"/>
</svg>
