<svg width="32" height="25" viewBox="0 0 32 25" fill="none" xmlns="http://www.w3.org/2000/svg">
<path fill-rule="evenodd" clip-rule="evenodd" d="M6.46187 0C4.68672 0 3.37319 1.55373 3.43201 3.23872C3.48845 4.85753 3.41511 6.95412 2.88732 8.6639C2.35764 10.3785 1.46247 11.465 0 11.6044V13.179C1.46247 13.3187 2.35764 14.4047 2.88726 16.1195C3.41511 17.8293 3.48839 19.9259 3.43194 21.5447C3.37312 23.2294 4.68666 24.7834 6.46212 24.7834H24.6516C26.4268 24.7834 27.7401 23.2297 27.6812 21.5447C27.6248 19.9259 27.6981 17.8293 28.2259 16.1195C28.7556 14.4047 29.6486 13.3183 31.1111 13.179V11.6044C29.6486 11.4647 28.7557 10.3787 28.2259 8.6639C27.6981 6.95437 27.6248 4.85753 27.6812 3.23872C27.7401 1.55398 26.4268 0 24.6516 0H6.46163H6.46187ZM21.0923 15.2558C21.0923 17.576 19.3617 18.9831 16.4897 18.9831H11.6007C11.4609 18.9831 11.3268 18.9275 11.2279 18.8286C11.129 18.7297 11.0734 18.5956 11.0734 18.4558V6.32771C11.0734 6.18786 11.129 6.05373 11.2279 5.95484C11.3268 5.85595 11.4609 5.8004 11.6007 5.8004H16.4618C18.8566 5.8004 20.4283 7.09759 20.4283 9.08918C20.4283 10.4871 19.371 11.7385 18.024 11.9577V12.0306C19.8576 12.2318 21.0923 13.5017 21.0923 15.2558ZM15.9566 7.47195H13.169V11.4095H15.5168C17.3319 11.4095 18.3326 10.6786 18.3326 9.37222C18.3325 8.14795 17.472 7.47195 15.9566 7.47195ZM13.169 12.9718V17.311H16.0592C17.9489 17.311 18.9499 16.5527 18.9499 15.1277C18.9499 13.7026 17.9209 12.9715 15.9376 12.9715H13.169V12.9718Z" fill="#7952B3"/>
</svg>
