<svg width="31" height="32" viewBox="0 0 31 32" fill="none" xmlns="http://www.w3.org/2000/svg">
<path d="M30.0134 18.6362C29.8325 18.0869 29.3587 17.7043 28.746 17.6125C28.457 17.5693 28.1262 17.5877 27.7346 17.6686C27.0521 17.8098 26.5458 17.8636 26.1763 17.874C27.5711 15.5126 28.7052 12.8197 29.3581 10.2849C30.4139 6.18604 29.8497 4.31878 29.1904 3.47418C27.4457 1.23861 24.9001 0.0376372 21.8292 0.000889701C20.1909 -0.0191973 18.7528 0.305149 18.0025 0.538395C17.304 0.414801 16.5529 0.345796 15.7649 0.333035C14.2876 0.309403 12.9824 0.632332 11.8671 1.29603C11.2496 1.08665 10.2586 0.791492 9.11425 0.603146C6.42271 0.16005 4.2534 0.505311 2.66665 1.62936C0.745265 2.99031 -0.145436 5.35491 0.019295 8.65746C0.071613 9.706 0.656537 12.8963 1.57752 15.9219C2.10683 17.6609 2.67125 19.1051 3.25511 20.2146C4.08313 21.7879 4.96911 22.7144 5.96374 23.0471C6.52121 23.2333 7.53411 23.3638 8.59944 22.474C8.73447 22.638 8.91464 22.801 9.15372 22.9523C9.45738 23.1444 9.82867 23.3013 10.1995 23.3943C11.5358 23.7292 12.7876 23.6455 13.8555 23.1759C13.8621 23.3664 13.8672 23.5483 13.8714 23.7055C13.8785 23.9604 13.8856 24.2103 13.8949 24.444C13.9581 26.0242 14.0654 27.253 14.383 28.1127C14.4005 28.16 14.4239 28.232 14.4487 28.3085C14.6072 28.7951 14.8722 29.6097 15.5464 30.2476C16.2446 30.9085 17.0891 31.1111 17.8625 31.1111C18.2504 31.1111 18.6206 31.0601 18.9452 30.9904C20.1023 30.7416 21.4165 30.3628 22.3672 29.0054C23.266 27.7222 23.7029 25.7895 23.782 22.7442C23.7923 22.658 23.8017 22.5758 23.8108 22.4974L23.8296 22.3365L24.0414 22.3552L24.0959 22.3588C25.2745 22.4127 26.7156 22.1621 27.6006 21.7498C28.3 21.4244 30.541 20.238 30.0134 18.6362Z" fill="#1E2235"/>
<path d="M27.9982 18.9477C24.4939 19.6726 24.2529 18.4829 24.2529 18.4829C27.9529 12.9775 29.4997 5.9892 28.165 4.27885C24.5234 -0.386671 18.22 1.81983 18.1147 1.87702L18.0809 1.88317C17.3885 1.73901 16.6138 1.65323 15.7429 1.63893C14.1573 1.61294 12.9545 2.0558 12.0417 2.74987C12.0417 2.74987 0.796882 -1.89545 1.31994 8.59213C1.43118 10.8232 4.50899 25.4739 8.17997 21.0487C9.52173 19.4305 10.8183 18.0624 10.8183 18.0624C11.4621 18.4913 12.233 18.7101 13.0411 18.6315L13.1039 18.5781C13.0843 18.779 13.0933 18.9755 13.129 19.2081C12.1832 20.2677 12.4612 20.4537 10.5707 20.8439C8.65766 21.2393 9.78144 21.9431 10.5152 22.1272C11.4047 22.3501 13.4626 22.6661 14.853 20.7142L14.7976 20.9369C15.1681 21.2346 15.4282 22.8727 15.3846 24.3579C15.3411 25.8429 15.3119 26.8625 15.6038 27.6589C15.8959 28.4553 16.1869 30.2472 18.6722 29.7132C20.7488 29.2669 21.8249 28.1105 21.9747 26.1814C22.0809 24.8101 22.3214 25.0128 22.3365 23.7867L22.5294 23.2063C22.7517 21.3473 22.5647 20.7475 23.844 21.0265L24.1551 21.0539C25.0966 21.0968 26.3291 20.902 27.0525 20.5648C28.61 19.8401 29.5338 18.6298 27.998 18.9477H27.9982Z" fill="#0E7490"/>
<path d="M12.6999 9.58984C12.3842 9.54577 12.0982 9.58653 11.9535 9.69642C11.8722 9.75822 11.847 9.82982 11.8401 9.87909C11.822 10.0097 11.9132 10.154 11.9693 10.2285C12.1279 10.4393 12.3595 10.5841 12.5888 10.616C12.6221 10.6208 12.6552 10.6229 12.688 10.6229C13.0704 10.6229 13.4181 10.3243 13.4488 10.1039C13.4871 9.82793 13.0875 9.64396 12.6999 9.58996V9.58984ZM23.1617 9.59859C23.1315 9.38224 22.7476 9.32056 22.3833 9.37137C22.0194 9.42218 21.6666 9.58689 21.696 9.80371C21.7196 9.97232 22.0233 10.2602 22.3827 10.2602C22.4131 10.2602 22.4437 10.2581 22.4746 10.2538C22.7145 10.2205 22.8905 10.0677 22.9742 9.97965C23.1014 9.84542 23.1752 9.69583 23.1617 9.59859Z" fill="#1E2235"/>
<path d="M29.1643 18.8653C29.0307 18.4602 28.6006 18.3298 27.8861 18.4778C25.7645 18.9169 25.0047 18.6127 24.7552 18.4285C26.4043 15.9094 27.7609 12.8642 28.4928 10.023C28.8395 8.67718 29.0309 7.42729 29.0466 6.40852C29.0639 5.29037 28.874 4.46869 28.4823 3.96675C26.9031 1.94328 24.5853 0.857863 21.7797 0.828087C19.8509 0.806346 18.2213 1.30132 17.9053 1.44051C17.2401 1.27461 16.5148 1.17276 15.7252 1.15976C14.2773 1.13625 13.0256 1.48387 11.9894 2.19247C11.5393 2.02445 10.376 1.62401 8.95342 1.39419C6.494 0.997173 4.53961 1.29801 3.14494 2.28877C1.48078 3.47108 0.712501 5.58447 0.861325 8.57012C0.911404 9.5746 1.48219 12.6647 2.38291 15.624C3.56855 19.519 4.85741 21.724 6.21344 22.1776C6.37216 22.2306 6.55516 22.2677 6.757 22.2677C7.25167 22.2677 7.85816 22.0442 8.48916 21.2835C9.25879 20.3576 10.0549 19.4543 10.8766 18.5746C11.4097 18.8614 11.9953 19.0217 12.5942 19.0377C12.5954 19.0535 12.5969 19.0692 12.5984 19.0848C12.4953 19.2081 12.3943 19.3331 12.2955 19.4599C11.8805 19.9882 11.7942 20.0982 10.4583 20.374C10.0783 20.4527 9.06902 20.6613 9.05417 21.3707C9.03814 22.1458 10.2472 22.4713 10.385 22.5058C10.865 22.6264 11.3275 22.6858 11.7686 22.6858C12.8412 22.6858 13.7852 22.3323 14.5396 21.6482C14.5163 24.4115 14.6312 27.1344 14.9621 27.964C15.2331 28.6432 15.8951 30.3029 17.9862 30.3028C18.293 30.3028 18.6307 30.267 19.0023 30.1871C21.1847 29.718 22.1324 28.7508 22.499 26.6184C22.6952 25.4787 23.0318 22.7574 23.1902 21.2977C23.5244 21.4022 23.9546 21.4501 24.4197 21.45C25.3897 21.45 26.509 21.2433 27.2109 20.9166C27.9994 20.5494 29.4224 19.6483 29.1643 18.8653ZM23.9672 9.0014C23.96 9.43233 23.9008 9.82356 23.8381 10.2319C23.7706 10.6711 23.7009 11.1252 23.6833 11.6764C23.666 12.2129 23.7328 12.7706 23.7974 13.31C23.9279 14.3994 24.0619 15.521 23.5433 16.6276C23.4572 16.4746 23.3804 16.3164 23.3135 16.1539C23.2491 15.9973 23.1091 15.7456 22.9153 15.3973C22.1613 14.0413 20.3955 10.8658 21.2994 9.57011C21.5687 9.18443 22.252 8.78789 23.9672 9.0014ZM21.8881 1.70069C24.402 1.75635 26.3905 2.69938 27.7984 4.50343C28.8782 5.8872 27.6892 12.1836 24.2469 17.6155C24.2123 17.5713 24.1775 17.5273 24.1425 17.4835L24.0989 17.4289C24.9884 15.9558 24.8145 14.4983 24.6597 13.2061C24.596 12.6758 24.536 12.1749 24.5513 11.7044C24.5671 11.2058 24.6328 10.778 24.6964 10.3645C24.7746 9.85487 24.8541 9.32752 24.8322 8.70589C24.8486 8.64066 24.8552 8.56362 24.8466 8.47217C24.7906 7.87606 24.1119 6.09197 22.7285 4.4772C21.9718 3.59396 20.8683 2.60556 19.3615 1.9389C20.0096 1.8042 20.8958 1.6786 21.8881 1.70069ZM7.82139 20.7267C7.12618 21.5649 6.64612 21.4042 6.48823 21.3515C5.45954 21.0075 4.26589 18.8272 3.21352 15.3698C2.3029 12.3783 1.77076 9.37006 1.72858 8.52652C1.59566 5.85872 2.24057 3.99948 3.64549 3.00033C5.93193 1.37446 9.69106 2.34762 11.2016 2.84117C11.1799 2.86267 11.1573 2.88276 11.1358 2.90462C8.65707 5.4148 8.71587 9.70351 8.722 9.9657C8.72176 10.0668 8.73024 10.2101 8.74179 10.407C8.78445 11.1284 8.86387 12.4709 8.65177 13.9913C8.45475 15.4041 8.88908 16.7869 9.84318 17.7853C9.9411 17.8875 10.044 17.9848 10.1516 18.0769C9.72688 18.533 8.80389 19.5416 7.82139 20.7267ZM10.4702 17.1828C9.70119 16.3781 9.35193 15.2589 9.51183 14.1118C9.73572 12.5058 9.65312 11.107 9.60869 10.3555C9.60245 10.2503 9.59691 10.1582 9.59373 10.0855C9.95583 9.76353 11.6339 8.86198 12.8306 9.13693C13.3767 9.2623 13.7094 9.63521 13.8478 10.2766C14.5637 13.5972 13.9425 14.9812 13.4433 16.0934C13.3405 16.3226 13.2433 16.5391 13.1603 16.7632L13.096 16.9364C12.9331 17.3743 12.7816 17.7815 12.6877 18.1681C11.8702 18.1657 11.0749 17.8155 10.4702 17.1826V17.1828ZM10.5957 21.661C10.3569 21.6012 10.1422 21.4973 10.0163 21.4112C10.1215 21.3616 10.3087 21.294 10.6335 21.2269C12.205 20.9025 12.4478 20.6735 12.9778 19.9987C13.0993 19.8439 13.237 19.6686 13.4278 19.455L13.428 19.4547C13.7121 19.1357 13.8421 19.1898 14.0778 19.2879C14.2688 19.3671 14.4548 19.6072 14.5302 19.8714C14.5659 19.9961 14.606 20.2329 14.4749 20.4173C13.3677 21.9718 11.7543 21.9518 10.5957 21.661ZM18.8203 29.3357C16.8978 29.7488 16.217 28.7651 15.7684 27.6406C15.4789 26.9146 15.3366 23.6409 15.4376 20.0256C15.4389 19.9775 15.432 19.931 15.4188 19.8873C15.407 19.801 15.3891 19.7156 15.3651 19.6318C15.215 19.1058 14.8491 18.6658 14.4102 18.4833C14.2358 18.4109 13.9157 18.278 13.5311 18.3766C13.6131 18.0378 13.7554 17.655 13.9096 17.2407L13.9743 17.0664C14.0471 16.8699 14.1386 16.6663 14.2352 16.4508C14.7575 15.2871 15.4729 13.6933 14.6965 10.0926C14.4057 8.74394 13.4345 8.08532 11.9623 8.23833C11.0797 8.32991 10.2722 8.68698 9.86946 8.89175C9.78285 8.93571 9.70367 8.97825 9.62967 9.0196C9.74208 7.66077 10.1668 5.12129 11.7554 3.51456C12.7557 2.50311 14.0878 2.00354 15.7108 2.03048C18.9088 2.08294 20.9596 3.72866 22.117 5.10014C23.1143 6.28185 23.6543 7.47231 23.8698 8.11438C22.249 7.94908 21.1467 8.26988 20.5879 9.071C19.3723 10.8136 21.253 14.1958 22.1569 15.8213C22.3227 16.1192 22.4657 16.3767 22.5107 16.4861C22.8051 17.2014 23.1862 17.679 23.4644 18.0276C23.5497 18.1344 23.6324 18.238 23.6953 18.3285C23.2044 18.4705 22.3227 18.7983 22.403 20.4373C22.3382 21.2597 21.8774 25.1101 21.6433 26.4704C21.3342 28.2676 20.6747 28.937 18.8203 29.3358V29.3357ZM26.8453 20.1268C26.3433 20.3604 25.5033 20.5356 24.7053 20.5733C23.8239 20.6147 23.3752 20.4743 23.2696 20.3879C23.2201 19.3666 23.5992 19.2599 24.0004 19.1469C24.0634 19.1292 24.125 19.1118 24.1843 19.091C24.2212 19.1212 24.2616 19.1511 24.3059 19.1804C25.0144 19.6492 26.2779 19.6998 28.0618 19.3305L28.0813 19.3266C27.8407 19.5522 27.429 19.8549 26.8453 20.1268Z" fill="#1E2235"/>
</svg>
